<?xml version="1.0" encoding="utf-8"?>
<!-- Generator: Adobe Illustrator 16.0.0, SVG Export Plug-In . SVG Version: 6.00 Build 0)  -->
<!DOCTYPE svg PUBLIC "-//W3C//DTD SVG 1.1//EN" "http://www.w3.org/Graphics/SVG/1.1/DTD/svg11.dtd">
<svg version="1.1" id="Layer_1_copy" xmlns="http://www.w3.org/2000/svg" xmlns:xlink="http://www.w3.org/1999/xlink" x="0px"
	 y="0px" width="532.079px" height="536.945px" viewBox="0 0 532.079 536.945" enable-background="new 0 0 532.079 536.945"
	 xml:space="preserve">
<path opacity="0.3" enable-background="new    " d="M269.54,536.945c-35.408,0-69.799-6.953-102.22-20.668
	c-31.272-13.227-59.34-32.146-83.426-56.23c-24.083-24.082-43.001-52.15-56.229-83.426C13.953,344.201,7,309.811,7,274.405
	c0-35.406,6.953-69.798,20.665-102.218c13.228-31.274,32.146-59.343,56.23-83.426c24.083-24.084,52.152-43.002,83.426-56.229
	c32.42-13.712,66.811-20.665,102.219-20.665c35.406,0,69.797,6.953,102.217,20.665c31.275,13.229,59.344,32.146,83.426,56.229
	c24.086,24.084,43.006,52.152,56.23,83.425c13.713,32.421,20.666,66.813,20.666,102.219c0,35.405-6.953,69.796-20.666,102.216
	c-13.227,31.271-32.145,59.34-56.23,83.426c-24.084,24.086-52.152,43.004-83.424,56.23
	C339.336,529.992,304.945,536.945,269.54,536.945z"/>
<path d="M262.539,525.078c-35.407,0-69.799-6.953-102.219-20.666c-31.272-13.229-59.34-32.146-83.426-56.232
	c-24.083-24.082-43.001-52.148-56.229-83.424C6.953,332.335,0,297.944,0,262.539c0-35.406,6.953-69.798,20.665-102.218
	c13.228-31.274,32.146-59.343,56.23-83.426c24.083-24.084,52.152-43.002,83.426-56.23C192.741,6.953,227.132,0,262.539,0
	c35.407,0,69.797,6.953,102.217,20.666c31.275,13.228,59.344,32.147,83.426,56.23c24.086,24.084,43.006,52.152,56.23,83.425
	c13.713,32.421,20.666,66.813,20.666,102.219c0,35.405-6.953,69.795-20.666,102.215c-13.227,31.271-32.145,59.34-56.23,83.426
	c-24.084,24.086-52.152,43.004-83.424,56.23C332.336,518.125,297.945,525.078,262.539,525.078z"/>
<path fill="#156A36" d="M126.065,98.621c8.033,9.276,4.464,12.379,3.12,13.547c-1.131,0.983-2.264,1.461-3.463,1.461l0,0
	c-2.579,0-5.888-2.164-9.571-6.258c-2.843-3.157-4.5-6.014-4.924-8.491c-0.348-2.033,0.209-3.568,1.806-4.979
	c1.192-1.053,2.374-1.564,3.612-1.564C119.213,92.337,122.474,94.514,126.065,98.621z M327.663,47.038
	c-0.67-1.201-1.76-1.979-3.432-2.45c-0.615-0.173-1.203-0.261-1.744-0.261c-1.26,0-2.346,0.459-3.416,1.445
	c-1.854,1.7-3.355,4.642-4.465,8.744c-3.186,11.749,1.34,13.058,3.043,13.551c0.654,0.189,1.275,0.286,1.844,0.286
	c3.221,0,5.859-3.45,7.844-10.256C328.776,53.068,328.891,49.239,327.663,47.038z M512.879,262.539
	c0,33.764-6.629,66.556-19.703,97.464c-12.611,29.817-30.652,56.582-53.619,79.551c-22.969,22.969-49.732,41.008-79.553,53.621
	c-30.908,13.074-63.7,19.703-97.465,19.703s-66.558-6.629-97.467-19.703c-29.818-12.613-56.583-30.652-79.551-53.621
	c-22.967-22.969-41.007-49.732-53.619-79.553C18.829,329.093,12.2,296.303,12.2,262.539c0-33.765,6.628-66.557,19.701-97.466
	c12.612-29.818,30.652-56.584,53.62-79.552s49.733-41.008,79.552-53.62C195.982,18.829,228.774,12.2,262.539,12.2
	s66.555,6.628,97.465,19.701c29.818,12.612,56.584,30.652,79.551,53.62c22.969,22.968,41.01,49.732,53.621,79.552
	C506.25,195.981,512.879,228.774,512.879,262.539z M339.088,94.216l17.162,10.485l5.027-8.229l-1.316,10.498l19.871,12.14
	l0.012-0.18c2.281,3.961,4.764,7.246,7.387,9.777c4.795,4.625,10.164,6.97,15.955,6.97c0.445,0,0.893-0.014,1.357-0.043
	c5.594-0.375,10.314-2.52,14.029-6.373c2.48-2.572,4.023-5.541,4.586-8.815c0.424-2.421,0.436-5.252,0.023-8.751l-1.148-7.648
	c-0.066-0.53-0.119-1.481,0.275-1.891c0.24-0.251,0.352-0.188,0.783-0.086c0.721,0.161,1.381,0.539,2.02,1.154
	c1.012,0.975,2.529,3.087,4.027,7.609l1.563,4.712l15.354-15.92l-1.117-1.953c-2.549-4.453-5.629-8.219-9.156-11.19
	c-6.881-5.808-14.066-7.608-21.154-5.261c-3.113,1.048-5.855,2.785-8.15,5.163c-3.936,4.081-5.717,8.996-5.295,14.603
	c0.1,1.359,0.426,3.342,0.998,6.061c0.619,2.938,0.768,4.45,0.779,5.201l0.008,0.161c0.094,1.296-0.279,1.861-0.613,2.209
	c-0.324,0.336-0.582,0.408-1.25,0.304c-0.58-0.086-1.273-0.506-2.008-1.213c-1.07-1.033-2.016-2.435-2.807-4.169
	c-0.787-1.719-1.211-3.264-1.26-4.59l-0.264-7.046l-14.498,15.03l2.092-29.464l28.176-18.614l-17.857-10.91l-9.383,6.489l5.438-8.9
	L371.571,41.05L339.088,94.216z M312.241,87.214c3.148,0.886,6.176,1.335,8.994,1.335c4.986,0,9.48-1.389,13.367-4.134
	c5.717-4.067,10.016-11.011,12.775-20.635c2.74-9.552,2.658-17.756-0.242-24.386c-2.992-6.835-8.887-11.531-17.518-13.959
	c-8.611-2.422-16.154-1.48-22.283,2.75c-5.994,4.139-10.324,11.117-12.871,20.741C287.708,74.399,300.393,83.805,312.241,87.214z
	 M248.628,36.604l10.509,0.284l-1.153,42.681l20.033,0.541l1.151-42.681l11.156,0.302l0.529-19.602l-41.696-1.126L248.628,36.604z
	 M190.737,59.451c4.023,17.493,12.893,26.363,26.362,26.363c2.269,0,4.693-0.265,7.223-0.791c8.868-1.9,15.081-6.24,18.473-12.907
	c3.16-6.265,3.724-14.411,1.675-24.212c-2.032-9.727-5.931-16.945-11.59-21.458c-5.812-4.631-13.249-6.052-22.008-4.173
	c-8.762,1.878-14.961,6.194-18.426,12.827C189.075,41.556,188.5,49.75,190.737,59.451z M135.672,52.22l27.125,56.089l18.106-8.757
	l-4.199-8.681l8.115,6.788l20.962-10.139l-28.599-21.413l-0.403-33.769L157.94,41.45l0.378,11.401l-4.541-9.39L135.672,52.22z
	 M90.087,99.194c0.224,7.281,3.737,14.706,10.44,22.066c8.028,8.826,16.165,13.301,24.184,13.301c6.015,0,11.94-2.507,17.624-7.463
	c6.799-6.002,10.09-12.829,9.78-20.303c-0.315-7.009-3.815-14.387-10.403-21.928c-6.539-7.484-13.475-11.867-20.617-13.026
	c-7.338-1.193-14.527,1.227-21.23,7.144C93.147,84.915,89.857,91.715,90.087,99.194z M121.256,373.005
	c-6.703-8.561-12.636-17.75-17.715-27.457l-5.639,5.738l6.545,9.973l-12.064,11.547l15.682-6.037l5.928,9.033l0.956,1.459
	l6.003,9.146l1.081-1.058l12.928,13.204l-0.774,0.758l15.25,11.32l-3.087,11.252l6.482-8.73l15.454,11.473l-9.355,12.604
	c2.224-2.51,4.699-4.457,7.419-5.811c6.007-2.988,12.884-2.865,20.236,0.389c7.383,3.27,12.039,8.219,13.837,14.711
	c0.833,3.016,1.036,6.27,0.624,9.736l3.083-15.371l20.386,4.09c5.989,1.201,10.503,3.93,13.416,8.111
	c3.001,4.375,3.898,9.664,2.68,15.734c-0.673,3.355-2.106,6.402-4.256,9.055c-1.578,1.947-3.385,3.555-5.396,4.805l5.2,21.793
	l-20.46-4.104l-2.361-11.104l-2.049,10.219l-18.183-3.646l6.889-34.348c-0.604,2.178-1.418,4.424-2.458,6.74
	c-3.677,8.189-8.387,13.809-14,16.701c-2.885,1.475-5.992,2.221-9.243,2.221c-3.493,0-7.219-0.865-11.073-2.572
	c-10.131-4.559-20.244-14.563-10.977-36.369c1.012-2.383,2.131-4.541,3.35-6.488l-20.716,27.908l-15.211-11.293l3.978-16.203
	l-9.168,12.352l-15.043-11.168l27.114-36.527l-31.637,30.975L81.984,424.56l32.077-31.405l-38.945,25.562L64.8,403l6.749-4.43
	l-7.707,2.967l-9.504-14.479l5.786-5.889l-6.745,4.428l-10.281-15.664l46.857-30.754l6.989,10.648l6.576-4.316
	c-12.973-24.813-20.32-53.033-20.32-82.972C83.2,163.49,163.49,83.2,262.538,83.2c99.046,0,179.339,80.29,179.339,179.339
	c0,99.042-80.293,179.339-179.339,179.339c-57.343,0-108.396-26.914-141.225-68.795L121.256,373.005z M473.727,381.814
	l-16.957-10.393l-22.277-32.852l-10.982,17.922l8.17,10.34l-12.738-2.883l-6.893,11.245l-0.186-0.166l-20.922,23.464l-12.021,9.553
	l2.209,8.5l-4.996-6.285l-14.455,11.486c-2.879,0.393-5.666,1.277-8.313,2.656c-4.213,2.197-7.602,5.34-10.063,9.326
	c-2.668,4.275-3.941,9.021-3.789,14.131c0.078,1.982,0.385,4,0.891,6.039c-2.205-4.318-5.006-7.68-8.377-10.033
	c-5.494-3.834-12.283-4.693-20.041-2.508c-7.767,2.189-13.095,6.432-15.835,12.605c-1.161,2.621-1.825,5.506-1.991,8.637
	l-0.951-15.289l-18.572,1.154l1.554,24.977l-3.338,0.207l-1.554-24.977l-18.508,1.152l3.479,55.939l18.51-1.15l-0.796-12.775
	l3.337-0.207l0.795,12.775l18.572-1.156l-2.068-33.271c0.313,1.902,0.77,3.873,1.379,5.914
	c4.389,14.723,12.324,22.188,23.584,22.188c2.521,0,5.229-0.395,8.064-1.176c7.859-2.215,13.199-6.48,15.873-12.686
	c2.479-5.807,2.521-13.139,0.133-21.793c-0.018-0.057-0.033-0.109-0.049-0.166c0.027,0.059,0.055,0.113,0.084,0.17
	c3.65,7.002,8.406,11.896,14.141,14.545c2.873,1.322,5.979,1.994,9.229,1.994c0.709,0,1.436-0.031,2.164-0.096
	c3.6-0.318,7.129-1.369,10.494-3.123c3.947-2.061,7.023-4.701,9.143-7.85l0.996-1.48l-9.633-18.465l-2.518,5.711
	c-0.828,1.875-2.223,3.305-4.27,4.371c-2.154,1.125-4.115,1.393-6.217,0.779c-2.406-0.688-4.35-2.541-5.943-5.674
	c-1.65-3.236-2.15-6.066-1.49-8.391c0.559-1.92,1.832-3.377,3.895-4.453c1.889-0.984,3.984-1.41,6.359-1.314l5.186,0.217
	l-0.43-0.824l21.691,27.297l14.518-11.535l-4.576-5.76l7.176,3.695l16.801-13.354l-29.326-13.154l-4.639-19.557l35.033,31.24
	l22.395-25.113l-13.41-11.957l-10.053,11.273l-0.92-0.82l9.498-10.652l-13.17-11.745l-9.5,10.651l-0.824-0.734l9.883-11.083
	l-3.338-2.976l25.049,3.139l16.959,10.391L473.727,381.814z M318.581,458.777c-0.494,0-1.037,0.082-1.615,0.246
	c-1.721,0.482-2.658,1.398-3.135,3.061c-0.598,2.088-0.371,4.953,0.672,8.516c1.717,5.875,3.971,8.854,6.701,8.854
	c0.457,0,0.957-0.072,1.484-0.217c1.438-0.395,5.26-1.439,2.486-11.646C323.557,461.748,321.336,458.777,318.581,458.777z
	 M216.611,41.549c-0.487,0-1.015,0.06-1.569,0.179c-2.083,0.445-3.32,1.511-4.013,3.455c-0.844,2.366-0.8,5.669,0.132,9.814
	c1.596,7.116,4.146,10.724,7.583,10.725c0.446,0,0.928-0.053,1.43-0.157c1.743-0.359,6.375-1.314,3.917-13.338
	C222.608,45.146,220.091,41.549,216.611,41.549z M170.672,467.808c0.732,0.33,1.421,0.498,2.048,0.498
	c3.071,0,5.662-4.285,7.294-7.881c2.357-5.258,2.213-8.033,1.676-9.432c-0.254-0.664-0.793-1.633-2.534-2.404
	c-0.698-0.309-1.36-0.465-1.969-0.465c-0.803,0-1.588,0.27-2.399,0.826c-1.791,1.225-3.443,3.576-4.913,6.984
	C165.719,465.572,169.317,467.197,170.672,467.808z M218.829,461.898l-1.274,6.354l0.071,0.014c0.525,0.105,1.006,0.16,1.429,0.16
	l0,0c1.096,0,2.125-0.203,2.667-2.641c0.258-1.291-0.035-2.033-0.279-2.477c-0.117-0.195-0.595-1.006-2.542-1.396L218.829,461.898z
	 M163.447,231.239c5.166,6.302,7.719,15.217,7.661,26.744c-0.061,11.646-2.569,20.548-7.526,26.699
	c-5.138,6.331-12.783,9.497-22.937,9.497c-19.95-0.121-30.104-12.186-30.462-36.196c-0.179-11.527,2.344-20.442,7.571-26.744
	c5.226-6.302,12.857-9.453,22.892-9.453S158.279,224.938,163.447,231.239z M152.65,257.983c0.059-12.603-3.942-18.905-12.006-18.905
	c-3.942,0-6.93,1.644-8.959,4.928c-2.031,3.286-3.017,7.945-2.957,13.978c0.119,12.543,4.091,18.846,11.916,18.904
	C148.529,276.947,152.53,270.646,152.65,257.983z M199.06,222.951h-17.471v70.063h17.471V222.951z M213.573,222.951v70.063h38.615
	v-17.022h-21.055v-53.041H213.573z M262.401,293.015h38.705v-16.754h-21.145v-10.125h19.979V249.83h-19.979v-9.945h20.785v-16.934
	H262.4L262.401,293.015L262.401,293.015z M314.993,222.951h24.906c7.467,0,13.379,2.092,17.74,6.271
	c4.479,4.361,6.719,10.304,6.719,17.83c0,4.121-0.955,8.005-2.865,11.647c-1.914,3.644-4.422,6.601-7.527,8.869l11.738,25.445
	h-19.891l-8.781-20.338h-4.479v20.338h-17.561V222.951z M332.553,239.348v17.471h4.301c5.973,0,9.018-2.881,9.139-8.646
	c0-2.461-0.688-4.502-2.063-6.123c-1.611-1.8-3.973-2.701-7.076-2.701L332.553,239.348L332.553,239.348z M408.53,286.653
	c4.061-4.479,6.092-9.587,6.092-15.319c0-3.704-0.957-6.958-2.867-9.768c-1.494-2.209-3.732-4.538-6.719-6.988
	c-2.57-1.971-5.139-3.942-7.705-5.913c-1.854-1.492-2.779-3.104-2.779-4.838c0-1.672,0.809-2.986,2.42-3.942
	c1.373-0.836,2.957-1.254,4.748-1.254c3.166,0,7.139,1.254,11.916,3.763v-18.546c-5.732-1.672-11.26-2.33-16.574-1.972
	c-9.916,0.658-16.725,4.511-20.428,11.558c-1.613,3.106-2.42,6.422-2.42,9.945c0,5.974,2.209,10.931,6.631,14.873
	c1.135,1.017,3.047,2.435,5.734,4.256c2.688,1.822,4.598,3.301,5.732,4.435c1.732,1.554,2.6,3.314,2.6,5.286
	c0,1.792-0.807,3.256-2.42,4.392c-1.254,0.896-2.926,1.344-5.018,1.344c-2.33,0-4.822-0.522-7.48-1.568
	c-2.658-1.044-4.764-2.313-6.316-3.809v18.727c5.973,1.911,11.35,2.867,16.127,2.867C397.688,294.18,403.928,291.671,408.53,286.653
	z"/>
<path d="M262.539,439.563c-23.874,0-47.064-4.688-68.924-13.936c-21.085-8.919-40.011-21.675-56.252-37.915
	c-16.238-16.238-28.995-35.163-37.914-56.252c-9.246-21.859-13.934-45.049-13.934-68.921c0-23.874,4.688-47.063,13.934-68.923
	c8.919-21.087,21.675-40.014,37.915-56.252c16.238-16.239,35.165-28.995,56.252-37.915c21.86-9.246,45.049-13.934,68.923-13.934
	c23.875,0,47.063,4.688,68.922,13.935c21.089,8.919,40.015,21.676,56.252,37.915c16.241,16.239,28.999,35.165,37.915,56.251
	c9.246,21.861,13.935,45.05,13.935,68.924c0,23.873-4.688,47.062-13.935,68.921c-8.918,21.086-21.674,40.012-37.915,56.253
	c-16.238,16.24-35.165,28.996-56.25,37.914C309.602,434.875,286.413,439.563,262.539,439.563z"/>
<path fill="#FFFFFF" d="M262.539,431.996c-22.854,0-45.052-4.487-65.978-13.339c-20.185-8.538-38.301-20.75-53.848-36.296
	c-15.544-15.544-27.755-33.659-36.293-53.847c-8.851-20.925-13.338-43.123-13.338-65.975c0-22.853,4.488-45.051,13.338-65.977
	c8.538-20.186,20.749-38.303,36.293-53.848c15.545-15.545,33.662-27.756,53.848-36.294c20.926-8.85,43.124-13.338,65.977-13.338
	c22.854,0,45.05,4.488,65.976,13.338c20.188,8.538,38.304,20.75,53.848,36.294c15.547,15.545,27.759,33.662,36.295,53.847
	c8.851,20.926,13.339,43.125,13.339,65.978c0,22.853-4.488,45.05-13.339,65.975c-8.538,20.185-20.748,38.302-36.295,53.848
	c-15.545,15.547-33.661,27.757-53.846,36.295C307.589,427.508,285.392,431.996,262.539,431.996z"/>
<path fill="#FFFFFF" d="M102.747,119.242c12.985,14.275,25.519,16.145,37.603,5.607c6.117-5.399,9.04-11.372,8.769-17.919
	c-0.285-6.343-3.507-13.039-9.665-20.089c-6.095-6.976-12.374-10.989-18.838-12.039c-6.464-1.048-12.719,1.095-18.765,6.432
	c-6.045,5.336-8.967,11.293-8.765,17.868C93.288,105.68,96.509,112.393,102.747,119.242z M131.153,114.432
	c-4.745,4.126-10.49,2.441-17.232-5.053c-3.244-3.603-5.128-6.934-5.651-9.993c-0.523-3.058,0.402-5.637,2.777-7.733
	c4.858-4.288,10.62-2.619,17.286,5.005C134.995,104.351,135.936,110.275,131.153,114.432z M164.191,104.302l-24.513-50.688
	l12.704-6.146l9.404,19.445l-0.784-23.613l12.833-6.207l0.364,30.527l25.836,19.345l-14.778,7.147L167.931,79.62l8.966,18.537
	L164.191,104.302z M223.693,82.09c7.979-1.71,13.452-5.484,16.423-11.325c2.859-5.668,3.332-13.085,1.417-22.247
	c-1.895-9.067-5.402-15.642-10.522-19.725c-5.122-4.081-11.624-5.277-19.51-3.587c-7.885,1.69-13.35,5.451-16.396,11.282
	c-3.046,5.833-3.526,13.263-1.444,22.29C197.986,77.586,207.996,85.355,223.693,82.09z M208.234,55.655
	c-1.063-4.73-1.074-8.557-0.031-11.48c1.042-2.923,3.112-4.718,6.21-5.381c6.337-1.358,10.542,2.92,12.618,12.832
	c2.038,9.972-0.045,15.597-6.25,16.877C214.622,69.774,210.439,65.491,208.234,55.655z M262.217,33.97l-10.509-0.284l0.368-13.603
	l35.698,0.964l-0.367,13.604l-11.156-0.302l-1.151,42.681l-14.035-0.379L262.217,33.97z M313.053,84.326
	c7.855,2.21,14.457,1.425,19.811-2.355c5.174-3.681,9.051-10.02,11.633-19.018c2.553-8.904,2.518-16.356-0.107-22.355
	c-2.627-5.999-7.818-10.091-15.582-12.274c-7.764-2.183-14.352-1.406-19.766,2.331c-5.416,3.738-9.308,10.086-11.676,19.042
	C292.417,68.35,297.646,79.893,313.053,84.326z M316.815,70.949c-6.041-1.748-7.74-7.488-5.104-17.217
	c1.266-4.68,3.041-8.069,5.328-10.169c2.285-2.1,4.953-2.721,8.004-1.863c6.238,1.755,7.961,7.501,5.174,17.237
	C327.368,68.708,322.903,72.712,316.815,70.949z M343.211,93.22l29.355-48.046l12.041,7.357l-11.262,18.433l19.434-13.44
	l12.164,7.432l-25.473,16.828l-2.283,32.195l-14.01-8.559l2.813-22.414l-10.736,17.571L343.211,93.22z M389.313,126.548
	c-2.766-2.666-5.342-6.219-7.729-10.655l10.445-10.831c0.064,1.729,0.574,3.639,1.529,5.727c0.953,2.087,2.104,3.78,3.451,5.08
	c1.209,1.166,2.428,1.84,3.652,2.021c1.564,0.244,2.85-0.153,3.848-1.189c1.102-1.141,1.582-2.643,1.447-4.507
	c-0.023-1.29-0.305-3.211-0.844-5.765c-0.537-2.553-0.854-4.44-0.941-5.66c-0.357-4.747,1.129-8.847,4.463-12.302
	c1.965-2.038,4.281-3.506,6.947-4.403c6.072-2.01,12.16-0.439,18.264,4.711c3.273,2.759,6.104,6.222,8.486,10.388l-10.346,10.728
	c-1.365-4.118-2.963-7.059-4.793-8.825c-1.037-0.999-2.188-1.641-3.447-1.923c-1.467-0.347-2.666-0.036-3.598,0.931
	c-0.969,1.002-1.332,2.451-1.094,4.348c0.387,2.572,0.771,5.146,1.158,7.719c0.359,3.083,0.355,5.68-0.012,7.791
	c-0.463,2.69-1.727,5.106-3.791,7.248c-3.199,3.317-7.223,5.138-12.07,5.463C398.883,132.977,393.874,130.946,389.313,126.548z
	 M117.819,387.101l-41.841,27.461l-7.023-10.699l27.662-18.156l-31.595,12.162l-6.849-10.434l23.729-24.146L54.24,381.443
	l-6.988-10.646l41.841-27.463l11.476,17.484l-21.063,20.16l27.378-10.54L117.819,387.101z M130.72,398.511l-35.763,35.012
	l-8.73-8.918l35.763-35.012L130.72,398.511z M164.09,425.248l-29.831,40.186l-11.202-8.314l7.052-28.721l-16.251,21.893
	l-10.226-7.592l29.831-40.188l12.539,9.309l-6.778,24.699l14.229-19.168L164.09,425.248z M197.532,447.32
	c-1.554-5.609-5.606-9.867-12.16-12.77c-6.555-2.9-12.45-3.049-17.686-0.443c-5.237,2.604-9.463,7.697-12.68,15.277
	c-6.709,15.787-3.565,26.605,9.431,32.451c6.632,2.938,12.541,3.08,17.728,0.43c5.017-2.584,9.229-7.672,12.637-15.264
	C198.174,459.492,199.083,452.929,197.532,447.32z M173.094,446.474c2.276-1.559,4.702-1.768,7.277-0.627
	c5.267,2.33,6.058,7.605,2.375,15.818c-3.74,8.238-8.176,11.195-13.309,8.877c-5.095-2.301-5.866-7.566-2.316-15.795
	C168.826,450.791,170.817,448.033,173.094,446.474z M235.47,454.8c-2.467-3.541-6.314-5.836-11.544-6.885l-17.444-3.5l-9.842,49.072
	l12.3,2.467l2.856-14.244l3.138,0.629l3.292,15.479l13.931,2.793l-4.646-19.471c2.493-1.152,4.666-2.871,6.517-5.154
	c1.851-2.281,3.065-4.867,3.645-7.754C238.729,462.96,237.995,458.482,235.47,454.8z M224.067,461.857
	c0.734,1.328,0.929,2.854,0.583,4.578c-0.895,4.021-3.433,5.609-7.615,4.771l-3.012-0.605l2.454-12.234l3.012,0.604
	C221.664,459.406,223.19,460.369,224.067,461.857z M293.506,500.443l-12.584,0.783l-0.793-12.775l-9.326,0.58l0.795,12.775
	l-12.521,0.777l-3.106-49.951l12.52-0.779l1.555,24.977l9.326-0.58l-1.555-24.975l12.584-0.783L293.506,500.443z M330.309,446.326
	c-4.773-3.332-10.609-4.025-17.51-2.08c-6.897,1.945-11.533,5.59-13.905,10.936c-2.372,5.348-2.379,11.965-0.021,19.855
	c4.899,16.438,14.219,22.766,27.959,18.98c6.98-1.969,11.623-5.627,13.928-10.975c2.217-5.191,2.217-11.797,0-19.816
	C338.565,455.291,335.083,449.658,330.309,446.326z M311.624,471.441c-1.211-4.137-1.438-7.529-0.676-10.184
	c0.758-2.65,2.494-4.359,5.203-5.123c5.545-1.563,9.518,1.994,11.92,10.67c2.371,8.73,0.842,13.838-4.59,15.324
	C318.088,483.605,314.135,480.042,311.624,471.441z M364.184,424.527l5.98,11.463c-2.902-0.121-5.527,0.428-7.873,1.65
	c-2.799,1.461-4.596,3.553-5.389,6.275c-0.881,3.107-0.316,6.637,1.697,10.592c1.977,3.877,4.574,6.275,7.797,7.193
	c2.779,0.813,5.59,0.477,8.428-1.002c2.646-1.381,4.521-3.322,5.625-5.822l5.92,11.35c-1.844,2.74-4.523,5.029-8.041,6.865
	c-3.027,1.578-6.15,2.51-9.371,2.793c-3.545,0.311-6.836-0.234-9.875-1.635c-5.135-2.373-9.381-6.775-12.734-13.207
	c-2.389-4.576-3.666-9.012-3.836-13.303c-0.135-4.5,0.98-8.643,3.338-12.424c2.191-3.549,5.158-6.301,8.904-8.254
	C357.741,425.505,360.885,424.66,364.184,424.527z M392.235,401.296l6.264,26.402l26.178,11.744l-11.426,9.076l-17.85-9.191
	l11.387,14.33l-9.82,7.803l-31.137-39.182l9.82-7.805l11.943,15.031l-5.281-20.326L392.235,401.296z M454.651,373.643l14.949,9.162
	l-6.553,10.694l-14.953-9.162l-35.254-4.416l8.291,7.394l-9.881,11.083l5.303,4.729l9.498-10.652l8.693,7.752l-9.498,10.652
	l5.396,4.813l10.053-11.273l8.934,7.965l-18.4,20.637l-37.354-33.309l18.229-20.444l0.627,0.56l7.645-12.474l18.92,4.278
	l-12.135-15.354l7.459-12.171L454.651,373.643z"/>
<path d="M247.693,104.722h-10.164h-3v3v8.509h-20.035h-1.243l-0.878,0.879l-4.57,4.57l-0.879,0.879v1.242v18.43v1.242l0.879,0.879
	l4.57,4.57l0.878,0.879h1.243h5.615l-6.689,66.468h-6.529v64.877l-1.148,11.411v-76.288h-30.836v22.197
	c-1.51-4.361-3.609-8.191-6.292-11.464c-6.474-7.896-15.885-11.898-27.97-11.898c-12.071,0-21.503,3.994-28.035,11.869
	c-6.248,7.532-9.313,18.001-9.109,31.11c0.202,13.529,3.382,24.047,9.453,31.26c6.372,7.57,15.674,11.445,27.65,11.52h0.041
	c12.218,0,21.681-4.027,28.14-11.986c2.602-3.229,4.644-7.051,6.122-11.438v22.26h30.117l-12.345,122.664
	c0.96,0.42,1.923,0.838,2.891,1.238l12.469-123.902h23.167l31.992,22.469l31.992-22.469h12.6V269.58h-1.166v-23.012h0.807v-30.299
	h-51.711v8.573h-17.902v-8.573h-21.382l6.991-69.468h-8.932l-4.57-4.57v-18.43l4.57-4.57h23.035v-11.509h13.164V89.569h26.326
	v18.152h13.164v11.509h23.038l4.57,4.57v18.43l-4.57,4.57H303.09l6.656,69.468h-1.438v83.429h9.432l11.867,123.861
	c0.969-0.402,1.934-0.818,2.895-1.24l-11.748-122.621h18.48v-5.058l2.184,5.058h34.727l-0.383-0.828
	c5.035,1.317,9.748,1.993,14.041,1.993c9.797,0,17.754-3.261,23.678-9.721c5.191-5.728,7.822-12.392,7.822-19.81
	c0-5.049-1.354-9.601-4.014-13.508c-1.871-2.771-4.494-5.521-8.016-8.411l-4.705-3.616c1.451,0.416,3.402,1.171,5.961,2.514
	l9.789,5.138v-34.613l-4.814-1.402c-6.461-1.885-12.855-2.629-18.887-2.225c-15.379,1.021-22.574,8.784-25.918,15.147
	c-0.713,1.375-1.297,2.791-1.771,4.237c-1.465-3.885-3.686-7.292-6.666-10.194c-5.629-5.395-13.152-8.13-22.363-8.13H312.76
	l-6.369-66.468h6.83h1.242l0.879-0.879l4.57-4.57l0.879-0.879v-1.242V123.8v-1.242l-0.879-0.879l-4.57-4.57l-0.879-0.879h-1.242
	h-20.038v-8.509v-3h-3H280.02V89.569v-0.508c-5.771-0.57-11.604-0.861-17.48-0.861c-4.984,0-9.935,0.221-14.846,0.632v0.737
	L247.693,104.722L247.693,104.722z M166.642,287.149c-5.905,7.276-14.649,10.961-25.997,10.961h-0.024
	c-15.407-0.094-33.877-7.121-34.369-40.068c-0.192-12.437,2.659-22.3,8.476-29.313c5.984-7.216,14.704-10.874,25.917-10.874
	c11.221,0,19.916,3.664,25.842,10.892c5.738,7,8.615,16.843,8.552,29.256C174.973,270.509,172.148,280.316,166.642,287.149z
	 M202.99,296.945h-25.332V219.02h25.332V296.945z M339.899,219.021c8.479,0,15.361,2.478,20.461,7.364
	c5.27,5.13,7.93,12.076,7.93,20.668c0,4.744-1.115,9.277-3.316,13.473c-1.648,3.143-3.719,5.87-6.172,8.144l10.945,23.725V263.35
	l6.656,6.405c1.172,1.127,2.863,2.131,5.025,2.979c2.188,0.861,4.221,1.298,6.045,1.298c1.229,0,2.174-0.213,2.732-0.613
	c0.771-0.543,0.771-0.887,0.771-1.19c0-0.56-0.146-1.333-1.291-2.36l-0.152-0.144c-0.658-0.657-2.088-1.878-5.162-3.963
	c-2.865-1.942-4.879-3.441-6.152-4.582c-5.264-4.695-7.938-10.686-7.938-17.801c0-4.144,0.963-8.099,2.859-11.756
	c4.375-8.324,12.332-12.917,23.656-13.669c5.73-0.391,11.785,0.326,17.938,2.12l2.83,0.825v27.997l-5.758-3.022
	c-5.215-2.737-8.365-3.313-10.09-3.313c-1.066,0-1.951,0.223-2.703,0.681c-0.533,0.316-0.533,0.429-0.533,0.585
	c0,0.625,0.822,1.382,1.313,1.776l7.734,5.937c3.313,2.719,5.76,5.278,7.48,7.825c2.348,3.45,3.541,7.479,3.541,11.968
	c0,6.713-2.393,12.756-7.109,17.959c-5.369,5.856-12.646,8.817-21.639,8.817c-5.164,0-10.992-1.026-17.326-3.054l-1.764-0.564
	l1.131,2.453h-28.617l-6.744-15.622v15.622h-25.422V219.02L339.899,219.021L339.899,219.021z M366.995,279.859l-4.887-10.592
	c1.875-1.979,3.502-4.237,4.887-6.73V279.859z M370.051,254.931c1.475,3.069,3.582,5.845,6.334,8.299
	c1.365,1.224,3.475,2.798,6.443,4.81c2.389,1.62,3.67,2.643,4.338,3.236c-1.404-0.048-2.992-0.417-4.73-1.101
	c-1.801-0.707-3.227-1.538-4.125-2.403l-9.471-9.111C369.323,257.438,369.729,256.195,370.051,254.931z M263.198,318.501
	l-24.124-16.943h48.249L263.198,318.501z M258.471,219.021h46.208v24.795h-20.786v2.084h19.979v24.167h-19.979v2.265h21.145v24.614
	h-46.565L258.471,219.021L258.471,219.021z M251.819,254.593l-14.003,11.326v-22.652L251.819,254.593z M255.719,255.298v11.757
	l-2.786,2.254h-14.536L255.719,255.298z M242.822,227.842h12.896v10.432L242.822,227.842z M255.719,242.132v11.756l-17.902-14.479
	v-11.757L255.719,242.132z M235.064,219.021v53.04h21.055v24.885h-46.477v-77.925H235.064z M233.694,434.507h57.689
	c-9.444,1.563-19.082,2.371-28.845,2.371S243.138,436.07,233.694,434.507z M262.54,396.56l37.973-23.627h-75.945L262.54,396.56z
	 M262.54,393.026l-27.473-17.094h54.945L262.54,393.026z M211.297,358.621l43.949-30.867L217.1,300.96L211.297,358.621z
	 M250.026,327.753l-35.088,24.644l4.633-46.032L250.026,327.753z M262.792,173.13l23.996-23.102l-47.48,0.888L262.792,173.13z
	 M246.698,153.778l32.5-0.607l-16.425,15.813L246.698,153.778z M209.703,374.451l-5.288,52.541c1.991,0.703,3.996,1.365,6.013,1.994
	l43.46-27.043L209.703,374.451z M212.206,379.542l36.004,22.4l-40.814,25.396L212.206,379.542z M263.198,333.337l-41.484,29.138
	h82.97L263.198,333.337z M263.198,337.003l31.994,22.472h-63.987L263.198,337.003z M219.064,137.66h89.589v-9.289h-89.589V137.66
	L219.064,137.66z M222.064,131.371h83.588v3.289h-83.588V131.371L222.064,131.371z M262.54,407.326l40.078,24.938
	c-1.393,0.326-2.789,0.635-4.189,0.928l-35.888-22.33l-35.888,22.33c-1.401-0.291-2.798-0.602-4.189-0.928L262.54,407.326z
	 M271.192,401.943l43.461,27.041c2.045-0.639,4.08-1.311,6.098-2.021l-5.049-52.713L271.192,401.943z M276.872,401.943l36.305-22.59
	l4.604,48.043L276.872,401.943z M231.661,156.267l-5.219,51.859l29.757-28.649L231.661,156.267z M251.854,179.496l-21.608,20.805
	l3.79-37.659L251.854,179.496z M271.151,327.753l42.986,30.19l-5.42-56.577L271.151,327.753z M276.372,327.753l29.852-20.969
	l4.309,44.959L276.372,327.753z M262.848,185.766l-31.093,29.936h62.742L262.848,185.766z M286.959,212.701h-47.764l23.67-22.789
	L286.959,212.701z M294.704,155.097l-25.264,24.321l30.344,28.701L294.704,155.097z M292.31,161.565l3.726,38.878l-22.248-21.045
	L292.31,161.565z M111.047,91.652c-2.375,2.097-3.301,4.676-2.777,7.733c0.523,3.06,2.407,6.391,5.651,9.993
	c6.742,7.494,12.487,9.179,17.232,5.053c4.782-4.156,3.842-10.081-2.82-17.774C121.667,89.033,115.905,87.364,111.047,91.652z
	 M129.185,112.168c-1.131,0.983-2.264,1.461-3.463,1.461l0,0c-2.579,0-5.888-2.164-9.571-6.258c-2.843-3.157-4.5-6.014-4.924-8.491
	c-0.348-2.033,0.209-3.568,1.806-4.979c1.192-1.053,2.374-1.564,3.612-1.564c2.569,0,5.83,2.177,9.421,6.284
	C134.098,107.897,130.529,111,129.185,112.168z M100.528,121.261c8.028,8.826,16.165,13.301,24.184,13.301
	c6.015,0,11.94-2.507,17.624-7.463c6.799-6.002,10.09-12.829,9.78-20.303c-0.315-7.009-3.815-14.387-10.403-21.928
	c-6.539-7.484-13.475-11.867-20.617-13.026c-7.338-1.193-14.527,1.227-21.23,7.144c-6.718,5.93-10.008,12.729-9.778,20.209
	C90.311,106.476,93.824,113.9,100.528,121.261z M101.851,81.234c6.046-5.337,12.301-7.479,18.765-6.432
	c6.464,1.05,12.743,5.063,18.838,12.039c6.158,7.05,9.38,13.746,9.665,20.089c0.271,6.547-2.651,12.52-8.769,17.919
	c-12.084,10.537-24.617,8.668-37.603-5.607c-6.238-6.85-9.459-13.563-9.661-20.14C92.884,92.527,95.806,86.57,101.851,81.234z
	 M180.903,99.552l-4.199-8.681l8.115,6.788l20.962-10.139l-28.599-21.413l-0.403-33.769L157.94,41.45l0.378,11.401l-4.541-9.39
	l-18.105,8.757l27.125,56.089L180.903,99.552z M152.383,47.47l9.404,19.445l-0.784-23.613l12.833-6.207l0.364,30.527l25.836,19.345
	l-14.778,7.147L167.931,79.62l8.966,18.537l-12.705,6.145l-24.513-50.688L152.383,47.47z M217.099,85.814
	c2.269,0,4.693-0.265,7.223-0.791c8.868-1.9,15.081-6.24,18.473-12.907c3.16-6.265,3.724-14.411,1.675-24.212
	c-2.032-9.727-5.931-16.945-11.59-21.458c-5.812-4.631-13.249-6.052-22.008-4.173c-8.762,1.878-14.961,6.194-18.426,12.827
	c-3.372,6.456-3.946,14.65-1.709,24.352C194.761,76.944,203.63,85.814,217.099,85.814z M195.105,36.488
	c3.046-5.831,8.511-9.592,16.396-11.282c7.886-1.69,14.388-0.494,19.51,3.587c5.12,4.083,8.628,10.657,10.522,19.725
	c1.915,9.162,1.442,16.579-1.417,22.247c-2.971,5.841-8.444,9.615-16.423,11.325c-15.697,3.266-25.707-4.504-30.032-23.312
	C191.579,49.751,192.06,42.321,195.105,36.488z M227.031,51.626c-2.076-9.912-6.281-14.19-12.618-12.832
	c-3.098,0.663-5.168,2.458-6.21,5.381c-1.043,2.924-1.032,6.75,0.031,11.48c2.205,9.836,6.388,14.119,12.547,12.848
	C226.986,67.223,229.069,61.598,227.031,51.626z M220.175,65.564c-0.502,0.104-0.984,0.157-1.43,0.157
	c-3.437-0.001-5.988-3.608-7.583-10.725c-0.932-4.146-0.977-7.448-0.132-9.814c0.693-1.944,1.93-3.01,4.013-3.455
	c0.554-0.119,1.082-0.179,1.569-0.179c3.48,0,5.998,3.597,7.481,10.678C226.55,64.25,221.918,65.205,220.175,65.564z
	 M257.983,79.568l20.033,0.541l1.152-42.681l11.156,0.302l0.528-19.602l-41.696-1.126l-0.53,19.601l10.509,0.284L257.983,79.568z
	 M251.708,33.686l0.368-13.603l35.698,0.964l-0.367,13.604l-11.156-0.302l-1.151,42.681l-14.035-0.379l1.153-42.681L251.708,33.686z
	 M312.241,87.214c3.148,0.886,6.176,1.335,8.994,1.335c4.986,0,9.48-1.389,13.367-4.134c5.717-4.067,10.016-11.011,12.775-20.635
	c2.74-9.552,2.658-17.756-0.242-24.386c-2.992-6.835-8.887-11.531-17.518-13.959c-8.611-2.422-16.154-1.48-22.283,2.75
	c-5.994,4.139-10.324,11.117-12.871,20.741C287.708,74.399,300.393,83.805,312.241,87.214z M297.364,49.696
	c2.369-8.956,6.262-15.304,11.676-19.042c5.414-3.737,12.004-4.515,19.766-2.331c7.764,2.184,12.957,6.275,15.584,12.274
	c2.623,5.999,2.66,13.451,0.105,22.355c-2.58,8.998-6.459,15.337-11.631,19.018c-5.354,3.78-11.955,4.565-19.811,2.355
	C297.646,79.893,292.417,68.35,297.364,49.696z M330.217,58.938c2.787-9.736,1.064-15.482-5.174-17.237
	c-3.051-0.857-5.719-0.236-8.004,1.863c-2.287,2.1-4.063,5.489-5.328,10.169c-2.637,9.729-0.938,15.469,5.104,17.217
	C322.903,72.712,327.368,68.708,330.217,58.938z M319.493,68.354c-0.568,0-1.188-0.097-1.844-0.286
	c-1.703-0.493-6.229-1.802-3.043-13.551c1.109-4.103,2.611-7.044,4.465-8.744c1.07-0.986,2.156-1.445,3.416-1.445
	c0.541,0,1.129,0.088,1.744,0.261c1.672,0.471,2.762,1.249,3.432,2.45c1.229,2.201,1.113,6.03-0.326,11.06
	C325.352,64.903,322.713,68.354,319.493,68.354z M356.25,104.701l5.027-8.229l-1.316,10.498l19.871,12.14l0.012-0.18
	c2.281,3.961,4.764,7.246,7.387,9.777c4.795,4.625,10.164,6.97,15.955,6.97c0.445,0,0.893-0.014,1.357-0.043
	c5.594-0.375,10.314-2.52,14.029-6.373c2.48-2.572,4.023-5.541,4.586-8.815c0.424-2.421,0.436-5.252,0.023-8.751l-1.148-7.648
	c-0.066-0.53-0.119-1.481,0.275-1.891c0.24-0.251,0.352-0.188,0.783-0.086c0.721,0.161,1.381,0.539,2.02,1.154
	c1.012,0.975,2.529,3.087,4.027,7.609l1.563,4.712l15.354-15.92l-1.117-1.953c-2.549-4.453-5.629-8.219-9.156-11.19
	c-6.881-5.808-14.066-7.608-21.154-5.261c-3.113,1.048-5.855,2.785-8.15,5.163c-3.936,4.081-5.717,8.996-5.295,14.603
	c0.1,1.359,0.426,3.342,0.998,6.061c0.619,2.938,0.768,4.45,0.779,5.201l0.008,0.161c0.094,1.296-0.279,1.861-0.613,2.209
	c-0.324,0.336-0.582,0.408-1.25,0.304c-0.58-0.086-1.273-0.506-2.008-1.213c-1.07-1.033-2.016-2.435-2.807-4.169
	c-0.787-1.719-1.211-3.264-1.26-4.59l-0.264-7.046l-14.498,15.03l2.092-29.464l28.176-18.614l-17.857-10.91l-9.383,6.489l5.438-8.9
	L371.571,41.05l-32.482,53.166L356.25,104.701z M392.032,105.062c0.063,1.729,0.574,3.639,1.527,5.727
	c0.953,2.087,2.105,3.78,3.453,5.08c1.209,1.166,2.428,1.84,3.652,2.021c1.564,0.244,2.848-0.153,3.848-1.189
	c1.1-1.141,1.58-2.643,1.445-4.507c-0.023-1.29-0.305-3.211-0.842-5.765c-0.539-2.553-0.855-4.44-0.943-5.66
	c-0.355-4.747,1.131-8.847,4.463-12.302c1.967-2.038,4.281-3.506,6.947-4.403c6.074-2.01,12.162-0.439,18.264,4.711
	c3.275,2.759,6.105,6.222,8.488,10.388l-10.348,10.728c-1.363-4.118-2.961-7.059-4.793-8.825c-1.035-0.999-2.186-1.641-3.445-1.923
	c-1.467-0.347-2.666-0.036-3.6,0.931c-0.967,1.002-1.33,2.451-1.094,4.348c0.387,2.572,0.773,5.146,1.158,7.719
	c0.361,3.083,0.357,5.68-0.012,7.791c-0.461,2.69-1.725,5.106-3.789,7.248c-3.199,3.317-7.223,5.138-12.072,5.463
	c-5.459,0.336-10.469-1.694-15.027-6.093c-2.766-2.666-5.342-6.219-7.73-10.655L392.032,105.062z M372.567,45.174l12.041,7.357
	l-11.262,18.433l19.434-13.44l12.164,7.432l-25.473,16.828l-2.283,32.195l-14.01-8.559l2.813-22.414l-10.736,17.571l-12.043-7.357
	L372.567,45.174z M169.438,470.542c5.133,2.318,9.568-0.639,13.309-8.877c3.683-8.213,2.892-13.488-2.375-15.818
	c-2.575-1.141-5.001-0.932-7.277,0.627c-2.276,1.561-4.268,4.316-5.973,8.273C163.571,462.976,164.343,468.242,169.438,470.542z
	 M169.876,455.935c1.469-3.408,3.122-5.76,4.913-6.984c0.812-0.557,1.597-0.826,2.399-0.826c0.608,0,1.271,0.156,1.969,0.467
	c1.74,0.771,2.28,1.74,2.534,2.402c0.537,1.398,0.681,4.176-1.676,9.434c-1.633,3.596-4.223,7.881-7.294,7.881
	c-0.627,0-1.315-0.168-2.048-0.5C169.317,467.197,165.719,465.572,169.876,455.935z M216.478,458.367l-2.454,12.234l3.012,0.605
	c4.183,0.838,6.721-0.752,7.615-4.771c0.346-1.725,0.151-3.25-0.583-4.578c-0.877-1.488-2.403-2.451-4.578-2.887L216.478,458.367z
	 M221.442,463.31c0.244,0.441,0.537,1.186,0.279,2.475c-0.542,2.438-1.571,2.641-2.667,2.641l0,0c-0.423,0-0.904-0.053-1.429-0.158
	l-0.071-0.014l1.274-6.354l0.071,0.014C220.848,462.302,221.325,463.113,221.442,463.31z M237.932,453.085
	c-2.913-4.182-7.427-6.91-13.416-8.111l-20.386-4.09l-3.083,15.371c0.412-3.467,0.209-6.721-0.624-9.736
	c-1.798-6.492-6.454-11.441-13.837-14.711c-7.352-3.254-14.229-3.377-20.236-0.389c-2.72,1.354-5.195,3.301-7.419,5.811
	l9.355-12.604l-15.454-11.473l-6.482,8.73l3.087-11.252l-15.25-11.32l0.774-0.758l-12.928-13.204l-1.081,1.058l-6.003-9.146
	l-0.958-1.459l-5.928-9.033l-15.682,6.037l12.064-11.547l-6.545-9.973l-0.958-1.461l-6.989-10.647l-46.857,30.754l10.281,15.664
	l6.745-4.427l-5.786,5.888l9.504,14.479l7.707-2.967l-6.749,4.428l10.316,15.717l38.945-25.561L81.984,424.56l12.928,13.205
	l31.637-30.975l-27.114,36.527l15.043,11.168l9.168-12.352l-3.978,16.203l15.211,11.293l20.716-27.908
	c-1.219,1.947-2.338,4.105-3.35,6.488c-9.267,21.807,0.846,31.811,10.977,36.369c3.854,1.707,7.58,2.572,11.073,2.572
	c3.251,0,6.358-0.746,9.243-2.221c5.613-2.893,10.323-8.512,14-16.701c1.04-2.316,1.854-4.563,2.458-6.74l-6.889,34.348
	l18.183,3.646l2.049-10.219l2.361,11.104l20.46,4.104l-5.2-21.793c2.011-1.25,3.818-2.857,5.396-4.805
	c2.15-2.652,3.583-5.699,4.256-9.055C241.83,462.75,240.933,457.46,237.932,453.085z M68.955,403.861l27.662-18.156l-31.595,12.164
	l-6.849-10.435l23.729-24.147L54.24,381.442l-6.988-10.647l41.841-27.461l11.476,17.483l-21.063,20.16l27.378-10.54L117.82,387.1
	l-41.841,27.46L68.955,403.861z M86.227,424.603l35.763-35.012l8.73,8.918l-35.763,35.014L86.227,424.603z M134.259,465.433
	l-11.202-8.314l7.052-28.721l-16.251,21.893l-10.226-7.592l29.831-40.188l12.539,9.309l-6.778,24.699l14.229-19.168l10.637,7.896
	L134.259,465.433z M194.802,467.003c-3.407,7.59-7.62,12.678-12.637,15.264c-5.187,2.648-11.096,2.508-17.728-0.43
	c-12.996-5.848-16.14-16.664-9.431-32.451c3.217-7.582,7.442-12.676,12.68-15.279c5.235-2.604,11.131-2.455,17.686,0.445
	c6.554,2.9,10.606,7.158,12.16,12.768C199.083,452.929,198.174,459.492,194.802,467.003z M237.672,468.23
	c-0.579,2.887-1.794,5.473-3.645,7.756s-4.023,4.002-6.517,5.154l4.646,19.471l-13.931-2.795l-3.292-15.479l-3.138-0.629
	l-2.856,14.244l-12.3-2.467l9.842-49.07l17.444,3.498c5.229,1.049,9.077,3.344,11.544,6.885
	C237.995,458.482,238.729,462.96,237.672,468.23z M328.071,466.804c-2.402-8.676-6.375-12.232-11.92-10.67
	c-2.709,0.766-4.445,2.475-5.203,5.125c-0.762,2.652-0.535,6.047,0.676,10.184c2.512,8.6,6.465,12.164,11.857,10.688
	C328.913,480.642,330.442,475.535,328.071,466.804z M322.688,479.236c-0.527,0.145-1.027,0.217-1.484,0.217
	c-2.73,0-4.984-2.979-6.701-8.854c-1.043-3.563-1.27-6.428-0.672-8.516c0.477-1.66,1.414-2.576,3.135-3.063
	c0.578-0.162,1.121-0.244,1.615-0.244c2.756,0,4.977,2.971,6.594,8.813C327.948,477.796,324.127,478.841,322.688,479.236z
	 M434.493,338.571l-10.982,17.923l8.17,10.338l-12.738-2.881l-6.893,11.244l-0.188-0.166l-20.922,23.463l-12.021,9.553l2.209,8.5
	l-4.994-6.285l-14.455,11.486c-2.879,0.395-5.668,1.279-8.313,2.658c-4.213,2.197-7.602,5.34-10.064,9.326
	c-2.666,4.275-3.939,9.02-3.789,14.129c0.078,1.982,0.387,4.002,0.893,6.041c-2.205-4.318-5.006-7.682-8.379-10.035
	c-5.492-3.834-12.283-4.691-20.039-2.506c-7.768,2.188-13.096,6.43-15.836,12.605c-1.162,2.619-1.826,5.504-1.992,8.637
	l-0.951-15.291l-18.571,1.156l1.554,24.977l-3.338,0.207l-1.555-24.977l-18.507,1.152l3.479,55.938l18.509-1.15l-0.795-12.775
	l3.338-0.207l0.793,12.775l18.573-1.156l-2.069-33.27c0.313,1.902,0.771,3.873,1.379,5.912c4.39,14.723,12.324,22.188,23.586,22.188
	c2.521,0,5.229-0.395,8.064-1.174c7.859-2.217,13.197-6.48,15.871-12.686c2.479-5.807,2.523-13.139,0.133-21.793
	c-0.016-0.057-0.033-0.109-0.049-0.166c0.029,0.057,0.055,0.113,0.084,0.17c3.652,7.002,8.408,11.895,14.141,14.543
	c2.873,1.324,5.979,1.994,9.23,1.994c0.707,0,1.436-0.031,2.162-0.096c3.602-0.316,7.131-1.367,10.494-3.121
	c3.949-2.061,7.025-4.703,9.145-7.852l0.996-1.48l-9.633-18.463l-2.52,5.709c-0.826,1.877-2.223,3.307-4.268,4.373
	c-2.154,1.123-4.115,1.393-6.219,0.777c-2.404-0.686-4.35-2.541-5.943-5.672c-1.65-3.238-2.148-6.068-1.49-8.393
	c0.559-1.92,1.834-3.377,3.895-4.453c1.891-0.982,3.986-1.41,6.361-1.313l5.184,0.217l-0.43-0.824l21.691,27.297l14.52-11.537
	l-4.576-5.76l7.174,3.695l16.803-13.352l-29.326-13.156l-4.641-19.557l35.035,31.242l22.395-25.113l-13.41-11.959l-10.053,11.273
	l-0.92-0.82l9.498-10.65l-13.172-11.746l-9.498,10.652l-0.824-0.734l9.881-11.084l-3.336-2.976l25.049,3.139l16.957,10.392
	l9.689-15.812l-16.957-10.392L434.493,338.571z M280.922,501.226l-0.793-12.773l-9.326,0.58l0.795,12.773l-12.521,0.779
	l-3.106-49.951l12.52-0.779l1.555,24.977l9.326-0.58l-1.555-24.977l12.584-0.781l3.105,49.951L280.922,501.226z M340.76,483.042
	c-2.305,5.35-6.947,9.008-13.928,10.975c-13.74,3.785-23.061-2.541-27.961-18.98c-2.356-7.891-2.351-14.508,0.021-19.854
	s7.008-8.99,13.906-10.936s12.734-1.252,17.51,2.078c4.771,3.332,8.256,8.967,10.449,16.902
	C342.975,471.248,342.975,477.853,340.76,483.042z M370.163,435.99c-2.902-0.121-5.527,0.428-7.871,1.65
	c-2.801,1.461-4.598,3.553-5.389,6.275c-0.883,3.107-0.316,6.637,1.697,10.592c1.975,3.877,4.572,6.275,7.795,7.193
	c2.781,0.813,5.592,0.477,8.428-1.002c2.646-1.381,4.521-3.322,5.625-5.822l5.92,11.35c-1.844,2.74-4.521,5.029-8.041,6.865
	c-3.025,1.578-6.15,2.51-9.369,2.793c-3.545,0.311-6.836-0.234-9.875-1.635c-5.137-2.373-9.381-6.775-12.736-13.207
	c-2.387-4.576-3.666-9.012-3.834-13.303c-0.135-4.5,0.979-8.643,3.336-12.424c2.191-3.549,5.16-6.301,8.904-8.254
	c2.988-1.559,6.133-2.404,9.434-2.537L370.163,435.99z M398.499,427.699l26.178,11.744l-11.426,9.076l-17.85-9.191l11.387,14.33
	l-9.82,7.803l-31.137-39.182l9.82-7.805l11.943,15.031l-5.281-20.326l9.922-7.885L398.499,427.699z M463.047,393.5l-14.951-9.162
	l-35.256-4.416l8.293,7.394l-9.883,11.083l5.303,4.729l9.498-10.652l8.693,7.752l-9.498,10.652l5.396,4.813l10.055-11.273
	l8.932,7.965l-18.398,20.637l-37.355-33.309l18.23-20.444l0.627,0.56l7.643-12.474l18.92,4.278l-12.133-15.354l7.459-12.171
	l20.029,29.538l14.951,9.162L463.047,393.5z M145.441,244.729c-1.168-1.173-2.692-1.72-4.796-1.72c-2.574,0-4.306,0.945-5.616,3.063
	c-1.625,2.629-2.422,6.623-2.37,11.872c0.142,14.954,5.862,14.996,8.015,15.013c0.012,0,0.024,0,0.037,0
	c2.245,0,7.867-0.08,8.009-15.011C148.75,251.491,147.616,246.914,145.441,244.729z M140.718,270.205c-0.008,0-0.016,0-0.023,0
	c-1.414-0.011-5.168-0.037-5.284-12.288c-0.059-5.88,1.033-8.899,1.959-10.397c0.813-1.315,1.639-1.759,3.275-1.759
	c1.941,0,2.575,0.637,2.846,0.909c0.757,0.761,2.514,3.383,2.478,11.25C145.852,270.141,142.188,270.205,140.718,270.205z
	 M342.063,248.089c-0.002-1.41-0.359-2.569-1.1-3.461c-0.346-0.382-1.322-1.35-4.109-1.35h-0.369v9.609h0.369
	C341.172,252.888,341.995,251.271,342.063,248.089z M339.235,247.285c0.043,0.22,0.07,0.489,0.074,0.82
	c-0.012,0.364-0.039,0.659-0.074,0.895V247.285z"/>
<path fill="#F2A520" d="M238.396,269.309l17.322-14.011v11.757l-2.786,2.254H238.396z M237.816,239.408l17.902,14.479v-11.756
	l-17.902-14.48V239.408L237.816,239.408z M103.521,345.509c-12.974-24.813-20.32-53.031-20.32-82.971
	C83.2,163.49,163.49,83.2,262.539,83.2c99.047,0,179.34,80.29,179.34,179.339c0,99.042-80.293,179.339-179.34,179.339
	c-57.342,0-108.396-26.914-141.225-68.795l-0.059-0.078c-6.703-8.561-12.636-17.75-17.715-27.457L103.521,345.509z M224.567,372.933
	l37.973,23.627l37.973-23.627H224.567z M304.684,362.475l-41.485-29.138l-41.484,29.138H304.684z M308.717,301.367l-37.565,26.387
	l42.987,30.19L308.717,301.367z M255.246,327.753L217.1,300.96l-5.803,57.66L255.246,327.753z M210.428,428.986l43.46-27.043
	l-44.186-27.492l-5.288,52.541C206.406,427.695,208.411,428.357,210.428,428.986z M302.618,432.263l-40.078-24.938l-40.077,24.938
	c1.392,0.326,2.788,0.637,4.189,0.928c2.334,0.484,4.682,0.926,7.042,1.316c9.443,1.563,19.081,2.371,28.845,2.371
	c9.762,0,19.4-0.809,28.844-2.371c2.361-0.391,4.709-0.832,7.045-1.316C299.829,432.898,301.226,432.589,302.618,432.263z
	 M320.75,426.962l-5.049-52.713l-44.51,27.693l43.461,27.041C316.698,428.345,318.733,427.675,320.75,426.962z M139.262,385.814
	c15.644,15.645,33.74,27.939,53.417,36.549c0.96,0.42,1.923,0.836,2.891,1.238l12.469-123.904h23.167l31.992,22.471l31.992-22.471
	h12.6v-30.119h-1.166v-23.011h0.807v-30.299h-51.711v8.573h-17.902v-8.573h-21.382l6.991-69.468h-8.932l-4.57-4.57V123.8l4.57-4.57
	h23.035v-11.509h13.164V86.569h26.326v21.152h13.164v11.509h23.038l4.57,4.57v18.43l-4.57,4.57H303.09l6.656,69.468h-1.438v83.429
	h9.432l11.867,123.861c0.969-0.402,1.934-0.818,2.895-1.24c19.639-8.605,37.697-20.889,53.314-36.504
	c32.928-32.93,51.063-76.709,51.063-123.275c0-46.568-18.135-90.35-51.063-123.277c-28.773-28.772-65.832-46.247-105.798-50.2
	c-5.771-0.57-11.604-0.861-17.48-0.861c-4.984,0-9.935,0.221-14.846,0.632c-40.969,3.433-79.028,21.026-108.432,50.43
	C106.334,172.189,88.2,215.97,88.2,262.539C88.2,309.105,106.334,352.886,139.262,385.814z M308.653,128.371h-89.589v9.289h89.589
	V128.371z M239.307,150.916l23.485,22.214l23.996-23.102L239.307,150.916z M226.442,208.126l29.757-28.649l-24.538-23.21
	L226.442,208.126z M269.44,179.418l30.344,28.701l-5.08-53.022L269.44,179.418z M231.755,215.701h62.742l-31.648-29.936
	L231.755,215.701z M517.879,262.539c0,34.437-6.762,67.884-20.098,99.412c-12.863,30.414-31.266,57.713-54.689,81.139
	c-23.426,23.426-50.725,41.826-81.139,54.691c-31.529,13.336-64.978,20.098-99.415,20.098s-67.886-6.762-99.414-20.098
	c-30.415-12.865-57.714-31.268-81.139-54.691c-23.425-23.426-41.825-50.725-54.689-81.139C13.961,330.421,7.2,296.976,7.2,262.539
	c0-34.438,6.761-67.885,20.096-99.413c12.864-30.415,31.265-57.715,54.69-81.14c23.425-23.426,50.725-41.825,81.14-54.689
	C194.654,13.961,228.102,7.2,262.539,7.2s67.885,6.761,99.413,20.097c30.414,12.864,57.715,31.264,81.139,54.689
	c23.426,23.425,41.828,50.724,54.691,81.139C511.118,194.653,517.879,228.102,517.879,262.539z M512.879,262.539
	c0-33.765-6.629-66.558-19.703-97.466c-12.611-29.819-30.652-56.584-53.621-79.552c-22.967-22.968-49.73-41.008-79.551-53.62
	c-30.91-13.073-63.7-19.701-97.465-19.701s-66.557,6.628-97.465,19.701c-29.819,12.612-56.584,30.652-79.552,53.62
	c-22.968,22.968-41.008,49.733-53.62,79.552C18.829,195.982,12.2,228.774,12.2,262.539c0,33.764,6.628,66.554,19.702,97.462
	c12.612,29.819,30.652,56.584,53.619,79.553c22.968,22.969,49.733,41.01,79.551,53.621c30.909,13.074,63.702,19.703,97.467,19.703
	s66.557-6.629,97.465-19.703c29.818-12.611,56.584-30.652,79.553-53.621c22.967-22.969,41.008-49.732,53.619-79.551
	C506.25,329.095,512.879,296.303,512.879,262.539z M152.65,257.983c-0.121,12.663-4.122,18.964-12.006,18.904
	c-7.825-0.06-11.797-6.361-11.916-18.904c-0.06-6.032,0.925-10.691,2.957-13.978c2.03-3.284,5.018-4.928,8.959-4.928
	C148.708,239.078,152.709,245.381,152.65,257.983z M148.72,257.946c0.03-6.455-1.104-11.032-3.279-13.218
	c-1.168-1.173-2.692-1.72-4.796-1.72c-2.574,0-4.306,0.945-5.616,3.063c-1.625,2.629-2.422,6.623-2.37,11.872
	c0.142,14.954,5.862,14.996,8.015,15.014c0.012,0,0.024,0,0.037,0C142.956,272.957,148.578,272.876,148.72,257.946z
	 M175.038,258.003c-0.065,12.506-2.89,22.313-8.396,29.146c-5.905,7.276-14.649,10.961-25.997,10.961h-0.024
	c-15.407-0.094-33.877-7.121-34.369-40.068c-0.192-12.437,2.659-22.3,8.476-29.313c5.984-7.216,14.704-10.874,25.917-10.874
	c11.221,0,19.916,3.664,25.842,10.892C172.224,235.747,175.102,245.59,175.038,258.003z M171.107,257.983
	c0.059-11.527-2.495-20.442-7.661-26.744c-5.167-6.302-12.768-9.453-22.802-9.453s-17.666,3.151-22.892,9.453
	c-5.227,6.302-7.75,15.217-7.571,26.744c0.358,24.011,10.512,36.075,30.462,36.196c10.154,0,17.799-3.166,22.937-9.497
	C168.538,278.531,171.047,269.63,171.107,257.983z M177.658,219.021h25.332v77.925h-25.332V219.021z M181.589,293.015h17.471
	v-70.063h-17.471V293.015L181.589,293.015z M235.064,219.021v53.04h21.055v24.885h-46.477v-77.925H235.064z M213.573,222.951v70.063
	h38.615v-17.022h-21.055v-53.041H213.573z M258.471,219.021h46.208v24.795h-20.786v2.084h19.979v24.167h-19.979v2.265h21.145v24.614
	h-46.565L258.471,219.021L258.471,219.021z M262.401,293.015h38.705v-16.754h-21.145v-10.125h19.979V249.83h-19.979v-9.945h20.785
	v-16.934H262.4L262.401,293.015L262.401,293.015z M332.553,256.818v-17.471h4.301c3.104,0,5.465,0.901,7.076,2.701
	c1.375,1.621,2.063,3.662,2.063,6.123c-0.121,5.766-3.166,8.646-9.139,8.646L332.553,256.818L332.553,256.818z M336.483,252.888
	h0.369c4.318,0,5.143-1.616,5.211-4.799c-0.002-1.41-0.361-2.569-1.102-3.461c-0.346-0.382-1.322-1.35-4.109-1.35h-0.369V252.888z
	 M339.899,219.021c8.479,0,15.361,2.478,20.461,7.364c5.27,5.13,7.93,12.076,7.93,20.668c0,4.744-1.115,9.277-3.316,13.473
	c-1.648,3.143-3.719,5.87-6.172,8.144l10.945,23.725V263.35l6.656,6.405c1.172,1.127,2.863,2.131,5.025,2.979
	c2.188,0.861,4.221,1.298,6.045,1.298c1.229,0,2.174-0.213,2.732-0.613c0.771-0.543,0.771-0.887,0.771-1.19
	c0-0.56-0.146-1.333-1.291-2.36l-0.152-0.144c-0.658-0.657-2.088-1.878-5.162-3.963c-2.865-1.942-4.879-3.441-6.152-4.582
	c-5.264-4.695-7.938-10.686-7.938-17.801c0-4.144,0.963-8.099,2.859-11.756c4.375-8.324,12.332-12.917,23.656-13.669
	c5.73-0.391,11.785,0.326,17.938,2.12l2.83,0.825v27.997l-5.758-3.022c-5.215-2.737-8.365-3.313-10.09-3.313
	c-1.066,0-1.951,0.223-2.703,0.681c-0.533,0.316-0.533,0.429-0.533,0.585c0,0.625,0.822,1.382,1.313,1.776l7.734,5.937
	c3.313,2.719,5.76,5.278,7.48,7.825c2.348,3.45,3.541,7.479,3.541,11.968c0,6.713-2.393,12.756-7.109,17.959
	c-5.369,5.856-12.646,8.817-21.639,8.817c-5.164,0-10.992-1.026-17.326-3.054l-1.764-0.564l1.131,2.453h-28.617l-6.744-15.622
	v15.622h-25.422V219.02L339.899,219.021L339.899,219.021z M373.676,291.313c5.973,1.911,11.35,2.867,16.127,2.867
	c7.885,0,14.125-2.509,18.727-7.526c4.061-4.479,6.092-9.587,6.092-15.32c0-3.703-0.955-6.958-2.867-9.767
	c-1.492-2.209-3.732-4.538-6.719-6.988c-2.568-1.971-5.137-3.942-7.705-5.913c-1.852-1.492-2.777-3.104-2.777-4.838
	c0-1.672,0.807-2.986,2.42-3.942c1.373-0.836,2.955-1.254,4.748-1.254c3.164,0,7.137,1.254,11.916,3.763v-18.546
	c-5.734-1.672-11.26-2.33-16.574-1.972c-9.916,0.658-16.727,4.511-20.43,11.558c-1.611,3.106-2.418,6.422-2.418,9.945
	c0,5.974,2.209,10.931,6.629,14.873c1.137,1.017,3.047,2.435,5.734,4.256c2.688,1.822,4.6,3.301,5.734,4.435
	c1.73,1.554,2.598,3.315,2.598,5.286c0,1.792-0.805,3.256-2.418,4.391c-1.254,0.896-2.928,1.344-5.018,1.344
	c-2.33,0-4.824-0.521-7.48-1.567c-2.658-1.044-4.764-2.313-6.316-3.808v18.724H373.676z M314.993,293.015h17.561v-20.338h4.479
	l8.781,20.338h19.891l-11.738-25.445c3.105-2.269,5.613-5.226,7.527-8.869c1.91-3.643,2.865-7.526,2.865-11.647
	c0-7.526-2.238-13.469-6.719-17.83c-4.361-4.18-10.273-6.271-17.74-6.271h-24.906V293.015z"/>
<radialGradient id="SVGID_1_" cx="251.5161" cy="275.1196" r="309.5151" gradientTransform="matrix(1 0 0 0.983 0 4.1925)" gradientUnits="userSpaceOnUse">
	<stop  offset="0" style="stop-color:#FFFFFF;stop-opacity:0"/>
	<stop  offset="0.957" style="stop-color:#000000"/>
</radialGradient>
<path opacity="0.3" fill="url(#SVGID_1_)" d="M262.781,510.508c-33.205,0-65.457-6.471-95.86-19.233
	c-29.327-12.31-55.649-29.917-78.236-52.334c-22.585-22.413-40.326-48.534-52.731-77.642
	c-12.859-30.173,100.959,153.306,324.27-55.443c75.053-70.159,148.764-72.64,148.764-39.687c0,32.951-6.52,64.958-19.379,95.13
	c-12.402,29.104-30.147,55.227-52.734,77.644c-22.584,22.416-48.907,40.024-78.231,52.332
	C328.235,504.038,295.984,510.508,262.781,510.508z"/>
<linearGradient id="SVGID_2_" gradientUnits="userSpaceOnUse" x1="262.5391" y1="624.5103" x2="262.539" y2="269.5479">
	<stop  offset="0" style="stop-color:#FFFFFF"/>
	<stop  offset="1" style="stop-color:#FFFFFF;stop-opacity:0"/>
</linearGradient>
<path fill="url(#SVGID_2_)" d="M262.539,500.848c-31.435,0-61.968-6.232-90.751-18.523c-27.764-11.855-52.683-28.812-74.066-50.399
	c-21.381-21.584-38.177-46.74-49.92-74.771c-12.174-29.058-18.347-59.882-18.347-91.615c0-31.734,6.173-62.559,18.347-91.617
	c11.744-28.03,28.539-53.188,49.921-74.773c21.381-21.586,46.301-38.542,74.066-50.398c28.783-12.29,59.315-18.521,90.75-18.521
	s61.966,6.232,90.75,18.522c27.766,11.856,52.687,28.813,74.065,50.398c21.383,21.586,38.182,46.743,49.923,74.772
	c12.175,29.059,18.347,59.884,18.347,91.618c0,31.733-6.172,62.556-18.347,91.614c-11.741,28.027-28.54,53.186-49.923,74.773
	c-21.381,21.587-46.301,38.544-74.063,50.397C324.505,494.616,293.973,500.848,262.539,500.848z"/>
<g>
	<defs>
		<path id="SVGID_3_" d="M262.539,517.877c-34.436,0-67.885-6.763-99.416-20.1c-30.414-12.865-57.712-31.265-81.138-54.689
			c-23.422-23.422-41.822-50.719-54.687-81.137C13.963,330.421,7.2,296.973,7.2,262.539c0-34.435,6.763-67.884,20.098-99.415
			c12.865-30.416,31.265-57.715,54.688-81.138c23.422-23.423,50.722-41.823,81.138-54.688C194.655,13.962,228.103,7.2,262.539,7.2
			s67.883,6.762,99.414,20.099c30.418,12.865,57.717,31.266,81.138,54.688c23.426,23.423,41.827,50.722,54.688,81.137
			c13.337,31.532,20.1,64.981,20.1,99.416c0,34.434-6.763,67.881-20.1,99.412c-12.863,30.414-31.263,57.713-54.688,81.139
			c-23.423,23.425-50.722,41.824-81.136,54.688C330.422,511.115,296.974,517.877,262.539,517.877z"/>
	</defs>
	<clipPath id="SVGID_4_">
		<use xlink:href="#SVGID_3_"  overflow="visible"/>
	</clipPath>
	<linearGradient id="SVGID_5_" gradientUnits="userSpaceOnUse" x1="101.1128" y1="30.4839" x2="159.8932" y2="89.8679">
		<stop  offset="0" style="stop-color:#FFFFFF"/>
		<stop  offset="1" style="stop-color:#FFFFFF;stop-opacity:0"/>
	</linearGradient>
	<path clip-path="url(#SVGID_4_)" fill="url(#SVGID_5_)" d="M43.096,175.972C84.54,199.972,133.54,7.2,281.549,7.894
		C121.54,0,3.148,152.838,43.096,175.972z"/>
</g>
</svg>
